<svg version="1.1" xmlns="http://www.w3.org/2000/svg" viewBox="-66.13434123950259 -10.350566676568492 118.1478683332347 21.52828429352667" fill="none" stroke="black" stroke-width="0.6%" vector-effect="non-scaling-stroke">
    <path d="M -65.13434 5.86894 L -65.13434 -5.10107 Q -64.14 -5.08 -63.15597 -5.06517 Q -62.18 -5.05 -61.1996 -5.02766 Q -60.24 -5.01 -59.2854 -4.98696 Q -58.35 -4.97 -57.43234 -4.94159 Q -56.53 -4.92 -55.65772 -4.8902 Q -54.8 -4.86 -53.97675 -4.83161 Q -53.17 -4.8 -52.40206 -4.76489 Q -51.65 -4.73 -50.9434 -4.68932 Q -50.25 -4.65 -49.60712 -4.60448 Q -48.97 -4.56 -48.39595 -4.51024 Q -47.82 -4.46 -47.30731 -4.40662 Q -46.79 -4.35 -46.33633 -4.29404 Q -45.87 -4.23 -45.47469 -4.1732 Q -45.07 -4.11 -44.71055 -4.04503 Q -44.35 -3.98 -44.0291 -3.91067 Q -43.7 -3.84 -43.41302 -3.77141 Q -43.12 -3.7 -42.84306 -3.62868 Q -42.57 -3.56 -42.29862 -3.48401 Q -42.03 -3.41 -41.75837 -3.33897 Q -41.49 -3.27 -41.20084 -3.19515 Q -40.92 -3.12 -40.60572 -3.0543 Q -40.3 -2.99 -39.95302 -2.91788 Q -39.61 -2.85 -39.22441 -2.78718 Q -38.84 -2.72 -38.40391 -2.66337 Q -37.97 -2.6 -37.47827 -2.54745 Q -36.99 -2.49 -36.43751 -2.44019 Q -35.89 -2.39 -35.27524 -2.34211 Q -34.66 -2.3 -33.98885 -2.25348 Q -33.31 -2.21 -32.57953 -2.17427 Q -31.84 -2.14 -31.05206 -2.10414 Q -30.25 -2.07 -29.41227 -2.04241 Q -28.55 -2.01 -27.67204 -1.98823 Q -26.77 -1.96 -25.84699 -1.94056 Q -24.91 -1.92 -23.95401 -1.89814 Q -22.99 -1.88 -22.01175 -1.85952 Q -21.03 -1.84 -20.04017 -1.82316 Q -19.05 -1.81 -18.05996 -1.78747 Q -17.07 -1.77 -16.09219 -1.75076 Q -15.12 -1.73 -14.15731 -1.71153 Q -13.21 -1.69 -12.27562 -1.66808 Q -11.36 -1.65 -10.46693 -1.61937 Q -9.59 -1.59 -8.74883 -1.56359 Q -7.92 -1.53 -7.13 -1.50086 Q -6.35 -1.47 -5.62982 -1.42698 Q 4.63 -0.84 11.23264 -2.15709 Q 19.1 -3.73 30.16223 -4.49791 Q 30.6 -4.53 31.08262 -4.55385 Q 31.59 -4.58 32.11979 -4.604 Q 32.68 -4.63 33.2663 -4.65027 Q 33.89 -4.67 34.52 -4.69417 Q 35.19 -4.72 35.87312 -4.73759 Q 36.59 -4.76 37.31084 -4.78224 Q 38.06 -4.81 38.80834 -4.82967 Q 39.58 -4.85 40.34068 -4.88138 Q 41.12 -4.91 41.87933 -4.93868 Q 42.65 -4.97 43.39339 -5.00261 Q 44.14 -5.04 44.85049 -5.07391 Q 45.56 -5.11 46.21794 -5.15298 Q 46.87 -5.19 47.46387 -5.23989 Q 48.05 -5.28 48.55848 -5.33434 Q 49.06 -5.38 49.47463 -5.43565 Q 49.88 -5.49 50.19007 -5.54284 Q 50.49 -5.6 50.68906 -5.65486 Q 50.88 -5.71 50.96083 -5.77035 Q 51.04 -5.83 51.00109 -5.88782 Q 50.96 -5.95 50.81234 -6.0057 Q 50.66 -6.07 50.40375 -6.12251 Q 50.14 -6.18 49.7907 -6.23683 Q 49.43 -6.29 48.9941 -6.34747 Q 48.55 -6.4 48.0395 -6.45345 Q 47.52 -6.51 46.95611 -6.55407 Q 46.39 -6.6 45.77688 -6.64887 Q 45.17 -6.69 44.53634 -6.73771 Q 43.91 -6.78 43.26844 -6.82083 Q 42.64 -6.86 42.00605 -6.89881 Q 41.39 -6.94 40.77982 -6.97249 Q 40.2 -7.01 39.61722 -7.04296 Q 39.07 -7.08 38.54163 -7.11152 Q 38.04 -7.14 37.57169 -7.17955 Q 37.13 -7.21 36.72067 -7.24851 Q 36.33 -7.28 35.99628 -7.31978 Q 35.67 -7.36 35.39943 -7.39468 Q 35.13 -7.43 34.923 -7.4746 Q 34.71 -7.52 34.55609 -7.5604 Q 34.39 -7.61 34.2824 -7.65268 Q 34.16 -7.7 34.08103 -7.75172 Q 33.99 -7.8 33.92771 -7.85747 Q 33.86 -7.91 33.79587 -7.96953 Q 33.73 -8.03 33.65792 -8.08713 Q 33.58 -8.15 33.48631 -8.20914 Q 33.39 -8.27 33.25462 -8.33412 Q 33.12 -8.4 32.93826 -8.46038 Q 32.76 -8.52 32.51666 -8.58568 Q 32.28 -8.65 31.97287 -8.70791 Q 31.67 -8.77 31.29441 -8.82486 Q 30.92 -8.88 30.47378 -8.93437 Q 30.03 -8.99 29.50868 -9.03432 Q 29 -9.08 28.40211 -9.12281 Q 27.82 -9.16 27.16215 -9.19815 Q 26.51 -9.23 25.8016 -9.25901 Q 25.09 -9.29 24.33724 -9.30444 Q 23.58 -9.32 22.7874 -9.33401 Q 21.99 -9.34 21.17395 -9.34769 Q 20.35 -9.35 19.51999 -9.34592 Q 18.68 -9.34 17.84826 -9.32965 Q 17 -9.32 16.18026 -9.30021 Q 15.35 -9.28 14.53534 -9.25933 Q 13.72 -9.24 12.92995 -9.20904 Q 12.14 -9.18 11.37702 -9.15159 Q 10.62 -9.12 9.88557 -9.0894 Q 9.17 -9.06 8.46041 -9.02494 Q 7.78 -8.99 7.10592 -8.96086 Q 6.46 -8.93 5.81674 -8.89947 Q 5.21 -8.87 4.5837 -8.84283 Q 4 -8.82 3.39515 -8.79278 Q 2.83 -8.77 2.23678 -8.75083 Q 1.68 -8.73 1.09265 -8.7181 Q 0.53 -8.7 -0.05376 -8.69526 Q -0.63 -8.69 -1.21875 -8.6825 Q -1.82 -8.68 -2.41771 -8.67952 Q -3.04 -8.68 -3.66465 -8.68553 Q -4.32 -8.69 -4.9762 -8.69932 Q -5.67 -8.71 -6.35982 -8.71933 Q -7.09 -8.73 -7.81753 -8.74362 Q -8.58 -8.76 -9.34925 -8.77006 Q -10.15 -8.78 -10.95048 -8.79641 Q -11.78 -8.81 -12.61221 -8.82035 Q -13.46 -8.83 -14.32104 -8.83961 Q -15.19 -8.85 -16.05948 -8.85203 Q -16.93 -8.86 -17.80662 -8.85565 Q -18.67 -8.86 -19.53851 -8.84876 Q -20.39 -8.84 -21.2282 -8.83006 Q -22.05 -8.82 -22.84825 -8.79847 Q -23.63 -8.78 -24.3751 -8.75374 Q -25.11 -8.73 -25.7806 -8.69482 Q -45.38 -7.72 -17.12102 -4.18808 Q 17.17 0.1 -4.24129 -1.34641 Q -4.91 -1.39 -5.62573 -1.4287 Q -6.36 -1.47 -7.13119 -1.50037 Q -7.92 -1.53 -8.74839 -1.56378 Q -9.59 -1.59 -10.46715 -1.61928 Q -11.36 -1.65 -12.2755 -1.66813 Q -13.21 -1.69 -14.15738 -1.7115 Q -15.12 -1.73 -16.09215 -1.75078 Q -17.07 -1.77 -18.05997 -1.78746 Q -19.05 -1.81 -20.04016 -1.82317 Q -21.03 -1.84 -22.01175 -1.85952 Q -22.99 -1.88 -23.95401 -1.89814 Q -24.91 -1.92 -25.84699 -1.94056 Q -26.77 -1.96 -27.67204 -1.98823 Q -28.55 -2.01 -29.41227 -2.04241 Q -30.25 -2.07 -31.05206 -2.10414 Q -31.84 -2.14 -32.57953 -2.17427 Q -33.31 -2.21 -33.98885 -2.25348 Q -34.66 -2.3 -35.27524 -2.34211 Q -35.89 -2.39 -36.43751 -2.44019 Q -36.99 -2.49 -37.47827 -2.54745 Q -37.97 -2.6 -38.40391 -2.66337 Q -38.84 -2.72 -39.22441 -2.78718 Q -39.61 -2.85 -39.95302 -2.91788 Q -40.3 -2.99 -40.60572 -3.0543 Q -40.92 -3.12 -41.20084 -3.19515 Q -41.49 -3.27 -41.75837 -3.33897 Q -42.03 -3.41 -42.29862 -3.48401 Q -42.57 -3.56 -42.84306 -3.62868 Q -43.12 -3.7 -43.41302 -3.77141 Q -43.7 -3.84 -44.0291 -3.91067 Q -44.35 -3.98 -44.71055 -4.04503 Q -45.07 -4.11 -45.47469 -4.1732 Q -45.87 -4.23 -46.33633 -4.29404 Q -46.79 -4.35 -47.30731 -4.40662 Q -47.82 -4.46 -48.39595 -4.51024 Q -48.97 -4.56 -49.60712 -4.60448 Q -50.25 -4.65 -50.9434 -4.68932 Q -51.65 -4.73 -52.40206 -4.76489 Q -53.17 -4.8 -53.97675 -4.83161 Q -54.8 -4.86 -55.65772 -4.8902 Q -56.53 -4.92 -57.43234 -4.94159 Q -58.35 -4.97 -59.2854 -4.98696 Q -60.24 -5.01 -61.1996 -5.02766 Q -62.18 -5.05 -63.15597 -5.06517 Q -64.14 -5.08 -65.13434 -5.10107 Q -64.14 -5.08 -63.15597 -5.06517 Q -62.18 -5.05 -61.1996 -5.02766 Q -60.24 -5.01 -59.2854 -4.98696 Q -58.35 -4.97 -57.43234 -4.94159 Q -56.53 -4.92 -55.65772 -4.8902 Q -54.8 -4.86 -53.97675 -4.83161 Q -53.17 -4.8 -52.40206 -4.76489 Q -51.65 -4.73 -50.9434 -4.68932 Q -50.25 -4.65 -49.60712 -4.60448 Q -48.97 -4.56 -48.39595 -4.51024 Q -47.82 -4.46 -47.30731 -4.40662 Q -46.79 -4.35 -46.33633 -4.29404 Q -45.87 -4.23 -45.47469 -4.1732 Q -45.07 -4.11 -44.71055 -4.04503 Q -44.35 -3.98 -44.0291 -3.91067 Q -43.7 -3.84 -43.41302 -3.77141 Q -43.12 -3.7 -42.84306 -3.62868 Q -42.57 -3.56 -42.29862 -3.48401 Q -42.03 -3.41 -41.75837 -3.33897 Q -41.49 -3.27 -41.20084 -3.19515 Q -40.92 -3.12 -40.60572 -3.0543 Q -40.3 -2.99 -39.95302 -2.91788 Q -39.61 -2.85 -39.22441 -2.78718 Q -38.84 -2.72 -38.40391 -2.66337 Q -37.97 -2.6 -37.47827 -2.54745 Q -36.99 -2.49 -36.43751 -2.44019 Q -35.89 -2.39 -35.27524 -2.34211 Q -34.66 -2.3 -33.98885 -2.25348 Q -33.31 -2.21 -32.57953 -2.17427 Q -31.84 -2.14 -31.05206 -2.10414 Q -30.25 -2.07 -29.41227 -2.04241 Q -28.55 -2.01 -27.67204 -1.98823 Q -26.77 -1.96 -25.84699 -1.94056 Q -24.91 -1.92 -23.95401 -1.89814 Q -22.99 -1.88 -22.01175 -1.85952 Q -21.03 -1.84 -20.04017 -1.82316 Q -19.05 -1.81 -18.05996 -1.78747 Q -17.07 -1.77 -16.09219 -1.75076 Q -15.12 -1.73 -14.15731 -1.71153 Q -13.21 -1.69 -12.27562 -1.66808 Q -11.36 -1.65 -10.46693 -1.61937 Q -9.59 -1.59 -8.74883 -1.56359 Q -7.92 -1.53 -7.13 -1.50086 Q -6.35 -1.47 -5.62982 -1.42698 Q 4.63 -0.84 11.23264 -2.15709 Q 19.1 -3.73 30.16223 -4.49791 Q 30.6 -4.53 31.08262 -4.55385 Q 31.59 -4.58 32.11979 -4.604 Q 32.68 -4.63 33.2663 -4.65027 Q 33.89 -4.67 34.52 -4.69417 Q 35.19 -4.72 35.87312 -4.73759 Q 36.59 -4.76 37.31084 -4.78224 Q 38.06 -4.81 38.80834 -4.82967 Q 39.58 -4.85 40.34068 -4.88138 Q 41.12 -4.91 41.87933 -4.93868 Q 42.65 -4.97 43.39339 -5.00261 Q 44.14 -5.04 44.85049 -5.07391 Q 45.56 -5.11 46.21794 -5.15298 Q 46.87 -5.19 47.46387 -5.23989 Q 48.05 -5.28 48.55848 -5.33434 Q 49.06 -5.38 49.47463 -5.43565 Q 49.88 -5.49 50.19007 -5.54284 Q 50.49 -5.6 50.68906 -5.65486 Q 50.88 -5.71 50.96083 -5.77035 Q 51.04 -5.83 51.00109 -5.88782 Q 50.96 -5.95 50.81234 -6.0057 Q 50.66 -6.07 50.40375 -6.12251 Q 50.14 -6.18 49.7907 -6.23683 Q 49.43 -6.29 48.9941 -6.34747 Q 48.55 -6.4 48.0395 -6.45345 Q 47.52 -6.51 46.95611 -6.55407 Q 46.39 -6.6 45.77688 -6.64887 Q 45.17 -6.69 44.53634 -6.73771 Q 43.91 -6.78 43.26844 -6.82083 Q 42.64 -6.86 42.00605 -6.89881 Q 41.39 -6.94 40.77982 -6.97249 Q 40.2 -7.01 39.61722 -7.04296 Q 39.07 -7.08 38.54163 -7.11152 Q 38.04 -7.14 37.57169 -7.17955 Q 37.13 -7.21 36.72067 -7.24851 Q 36.33 -7.28 35.99628 -7.31978 Q 35.67 -7.36 35.39943 -7.39468 Q 35.13 -7.43 34.923 -7.4746 Q 34.71 -7.52 34.55609 -7.5604 Q 34.39 -7.61 34.2824 -7.65268 Q 34.16 -7.7 34.08103 -7.75172 Q 33.99 -7.8 33.92771 -7.85747 Q 33.86 -7.91 33.79587 -7.96953 Q 33.73 -8.03 33.65792 -8.08713 Q 33.58 -8.15 33.48631 -8.20914 Q 33.39 -8.27 33.25462 -8.33412 Q 33.12 -8.4 32.93826 -8.46038 Q 32.76 -8.52 32.51666 -8.58568 Q 32.28 -8.65 31.97287 -8.70791 Q 31.67 -8.77 31.29441 -8.82486 Q 30.92 -8.88 30.47378 -8.93437 Q 30.03 -8.99 29.50868 -9.03432 Q 29 -9.08 28.40211 -9.12281 Q 27.82 -9.16 27.16215 -9.19815 Q 26.51 -9.23 25.8016 -9.25901 Q 25.09 -9.29 24.33724 -9.30444 Q 23.58 -9.32 22.7874 -9.33401 Q 21.99 -9.34 21.17395 -9.34769 Q 20.35 -9.35 19.51999 -9.34592 Q 18.68 -9.34 17.84826 -9.32965 Q 17 -9.32 16.18026 -9.30021 Q 15.35 -9.28 14.53534 -9.25933 Q 13.72 -9.24 12.92995 -9.20904 Q 12.14 -9.18 11.37702 -9.15159 Q 10.62 -9.12 9.88557 -9.0894 Q 9.17 -9.06 8.46041 -9.02494 Q 7.78 -8.99 7.10592 -8.96086 Q 6.46 -8.93 5.81674 -8.89947 Q 5.21 -8.87 4.5837 -8.84283 Q 4 -8.82 3.39515 -8.79278 Q 2.83 -8.77 2.23678 -8.75083 Q 1.68 -8.73 1.09265 -8.7181 Q 0.53 -8.7 -0.05376 -8.69526 Q -0.63 -8.69 -1.21875 -8.6825 Q -1.82 -8.68 -2.41771 -8.67952 Q -3.04 -8.68 -3.66465 -8.68553 Q -4.32 -8.69 -4.9762 -8.69932 Q -5.67 -8.71 -6.35982 -8.71933 Q -7.09 -8.73 -7.81753 -8.74362 Q -8.58 -8.76 -9.34925 -8.77006 Q -10.15 -8.78 -10.95048 -8.79641 Q -11.78 -8.81 -12.61221 -8.82035 Q -13.46 -8.83 -14.32104 -8.83961 Q -15.19 -8.85 -16.05948 -8.85203 Q -16.93 -8.86 -17.80662 -8.85565 Q -18.67 -8.86 -19.53851 -8.84876 Q -20.39 -8.84 -21.2282 -8.83006 Q -22.05 -8.82 -22.84825 -8.79847 Q -23.63 -8.78 -24.3751 -8.75374 Q -25.11 -8.73 -25.7806 -8.69482 Q -45.38 -7.72 -17.12102 -4.18808 Q 17.17 0.1 -4.24129 -1.34641 Q -4.91 -1.39 -5.62573 -1.4287 Q -6.36 -1.47 -7.13119 -1.50037 Q -7.92 -1.53 -8.74839 -1.56378 Q -9.59 -1.59 -10.46715 -1.61928 Q -11.36 -1.65 -12.2755 -1.66813 Q -13.21 -1.69 -14.15738 -1.7115 Q -15.12 -1.73 -16.09215 -1.75078 Q -17.07 -1.77 -18.05997 -1.78746 Q -19.05 -1.81 -20.04016 -1.82317 Q -21.03 -1.84 -22.01175 -1.85952 Q -22.99 -1.88 -23.95401 -1.89814 Q -24.91 -1.92 -25.84699 -1.94056 Q -26.77 -1.96 -27.67204 -1.98823 Q -28.55 -2.01 -29.41227 -2.04241 Q -30.25 -2.07 -31.05206 -2.10414 Q -31.84 -2.14 -32.57953 -2.17427 Q -33.31 -2.21 -33.98885 -2.25348 Q -34.66 -2.3 -35.27524 -2.34211 Q -35.89 -2.39 -36.43751 -2.44019 Q -36.99 -2.49 -37.47827 -2.54745 Q -37.97 -2.6 -38.40391 -2.66337 Q -38.84 -2.72 -39.22441 -2.78718 Q -39.61 -2.85 -39.95302 -2.91788 Q -40.3 -2.99 -40.60572 -3.0543 Q -40.92 -3.12 -41.20084 -3.19515 Q -41.49 -3.27 -41.75837 -3.33897 Q -42.03 -3.41 -42.29862 -3.48401 Q -42.57 -3.56 -42.84306 -3.62868 Q -43.12 -3.7 -43.41302 -3.77141 Q -43.7 -3.84 -44.0291 -3.91067 Q -44.35 -3.98 -44.71055 -4.04503 Q -45.07 -4.11 -45.47469 -4.1732 Q -45.87 -4.23 -46.33633 -4.29404 Q -46.79 -4.35 -47.30731 -4.40662 Q -47.82 -4.46 -48.39595 -4.51024 Q -48.97 -4.56 -49.60712 -4.60448 Q -50.25 -4.65 -50.9434 -4.68932 Q -51.65 -4.73 -52.40206 -4.76489 Q -53.17 -4.8 -53.97675 -4.83161 Q -54.8 -4.86 -55.65772 -4.8902 Q -56.53 -4.92 -57.43234 -4.94159 Q -58.35 -4.97 -59.2854 -4.98696 Q -60.24 -5.01 -61.1996 -5.02766 Q -62.18 -5.05 -63.15597 -5.06517 Q -64.14 -5.08 -65.13434 -5.10107 Q -64.14 -5.08 -63.15597 -5.06517 Q -62.18 -5.05 -61.1996 -5.02766 Q -60.24 -5.01 -59.2854 -4.98696 Q -58.35 -4.97 -57.43234 -4.94159 Q -56.53 -4.92 -55.65772 -4.8902 Q -54.8 -4.86 -53.97675 -4.83161 Q -53.17 -4.8 -52.40206 -4.76489 Q -51.65 -4.73 -50.9434 -4.68932 Q -50.25 -4.65 -49.60712 -4.60448 Q -48.97 -4.56 -48.39595 -4.51024 Q -47.82 -4.46 -47.30731 -4.40662 Q -46.79 -4.35 -46.33633 -4.29404 Q -45.87 -4.23 -45.47469 -4.1732 Q -45.07 -4.11 -44.71055 -4.04503 Q -44.35 -3.98 -44.0291 -3.91067 Q -43.7 -3.84 -43.41302 -3.77141 Q -43.12 -3.7 -42.84306 -3.62868 Q -42.57 -3.56 -42.29862 -3.48401 Q -42.03 -3.41 -41.75837 -3.33897 Q -41.49 -3.27 -41.20084 -3.19515 Q -40.92 -3.12 -40.60572 -3.0543 Q -40.3 -2.99 -39.95302 -2.91788 Q -39.61 -2.85 -39.22441 -2.78718 Q -38.84 -2.72 -38.40391 -2.66337 Q -37.97 -2.6 -37.47827 -2.54745 Q -36.99 -2.49 -36.43751 -2.44019 Q -35.89 -2.39 -35.27524 -2.34211 Q -34.66 -2.3 -33.98885 -2.25348 Q -33.31 -2.21 -32.57953 -2.17427 Q -31.84 -2.14 -31.05206 -2.10414 Q -30.25 -2.07 -29.41227 -2.04241 Q -28.55 -2.01 -27.67204 -1.98823 Q -26.77 -1.96 -25.84699 -1.94056 Q -24.91 -1.92 -23.95401 -1.89814 Q -22.99 -1.88 -22.01175 -1.85952 Q -21.03 -1.84 -20.04017 -1.82316 Q -19.05 -1.81 -18.05996 -1.78747 Q -17.07 -1.77 -16.09219 -1.75076 Q -15.12 -1.73 -14.15731 -1.71153 Q -13.21 -1.69 -12.27562 -1.66808 Q -11.36 -1.65 -10.46693 -1.61937 Q -9.59 -1.59 -8.74883 -1.56359 Q -7.92 -1.53 -7.13 -1.50086 Q -6.35 -1.47 -5.62982 -1.42698 Q 4.63 -0.84 11.23264 -2.15709 Q 19.1 -3.73 30.16223 -4.49791 Q 30.6 -4.53 31.08262 -4.55385 Q 31.59 -4.58 32.11979 -4.604 Q 32.68 -4.63 33.2663 -4.65027 Q 33.89 -4.67 34.52 -4.69417 Q 35.19 -4.72 35.87312 -4.73759 Q 36.59 -4.76 37.31084 -4.78224 Q 38.06 -4.81 38.80834 -4.82967 Q 39.58 -4.85 40.34068 -4.88138 Q 41.12 -4.91 41.87933 -4.93868 Q 42.65 -4.97 43.39339 -5.00261 Q 44.14 -5.04 44.85049 -5.07391 Q 45.56 -5.11 46.21794 -5.15298 Q 46.87 -5.19 47.46387 -5.23989 Q 48.05 -5.28 48.55848 -5.33434 Q 49.06 -5.38 49.47463 -5.43565 Q 49.88 -5.49 50.19007 -5.54284 Q 50.49 -5.6 50.68906 -5.65486 Q 50.88 -5.71 50.96083 -5.77035 Q 51.04 -5.83 51.00109 -5.88782 Q 50.96 -5.95 50.81234 -6.0057 Q 50.66 -6.07 50.40375 -6.12251 Q 50.14 -6.18 49.7907 -6.23683 Q 49.43 -6.29 48.9941 -6.34747 Q 48.55 -6.4 48.0395 -6.45345 Q 47.52 -6.51 46.95611 -6.55407 Q 46.39 -6.6 45.77688 -6.64887 Q 45.17 -6.69 44.53634 -6.73771 Q 43.91 -6.78 43.26844 -6.82083 Q 42.64 -6.86 42.00605 -6.89881 Q 41.39 -6.94 40.77982 -6.97249 Q 40.2 -7.01 39.61722 -7.04296 Q 39.07 -7.08 38.54163 -7.11152 Q 38.04 -7.14 37.57169 -7.17955 Q 37.13 -7.21 36.72067 -7.24851 Q 36.33 -7.28 35.99628 -7.31978 Q 35.67 -7.36 35.39943 -7.39468 Q 35.13 -7.43 34.923 -7.4746 Q 34.71 -7.52 34.55609 -7.5604 Q 34.39 -7.61 34.2824 -7.65268 Q 34.16 -7.7 34.08103 -7.75172 Q 33.99 -7.8 33.92771 -7.85747 Q 33.86 -7.91 33.79587 -7.96953 Q 33.73 -8.03 33.65792 -8.08713 Q 33.58 -8.15 33.48631 -8.20914 Q 33.39 -8.27 33.25462 -8.33412 Q 33.12 -8.4 32.93826 -8.46038 Q 32.76 -8.52 32.51666 -8.58568 Q 32.28 -8.65 31.97287 -8.70791 Q 31.67 -8.77 31.29441 -8.82486 Q 30.92 -8.88 30.47378 -8.93437 Q 30.03 -8.99 29.50868 -9.03432 Q 29 -9.08 28.40211 -9.12281 Q 27.82 -9.16 27.16215 -9.19815 Q 26.51 -9.23 25.8016 -9.25901 Q 25.09 -9.29 24.33724 -9.30444 Q 23.58 -9.32 22.7874 -9.33401 Q 21.99 -9.34 21.17395 -9.34769 Q 20.35 -9.35 19.51999 -9.34592 Q 18.68 -9.34 17.84826 -9.32965 Q 17 -9.32 16.18026 -9.30021 Q 15.35 -9.28 14.53534 -9.25933 Q 13.72 -9.24 12.92995 -9.20904 Q 12.14 -9.18 11.37702 -9.15159 Q 10.62 -9.12 9.88557 -9.0894 Q 9.17 -9.06 8.46041 -9.02494 Q 7.78 -8.99 7.10592 -8.96086 Q 6.46 -8.93 5.81674 -8.89947 Q 5.21 -8.87 4.5837 -8.84283 Q 4 -8.82 3.39515 -8.79278 Q 2.83 -8.77 2.23678 -8.75083 Q 1.68 -8.73 1.09265 -8.7181 Q 0.53 -8.7 -0.05376 -8.69526 Q -0.63 -8.69 -1.21875 -8.6825 Q -1.82 -8.68 -2.41771 -8.67952 Q -3.04 -8.68 -3.66465 -8.68553 Q -4.32 -8.69 -4.9762 -8.69932 Q -5.67 -8.71 -6.35982 -8.71933 Q -7.09 -8.73 -7.81753 -8.74362 Q -8.58 -8.76 -9.34925 -8.77006 Q -10.15 -8.78 -10.95048 -8.79641 Q -11.78 -8.81 -12.61221 -8.82035 Q -13.46 -8.83 -14.32104 -8.83961 Q -15.19 -8.85 -16.05948 -8.85203 Q -16.93 -8.86 -17.80662 -8.85565 Q -18.67 -8.86 -19.53851 -8.84876 Q -20.39 -8.84 -21.2282 -8.83006 Q -22.05 -8.82 -22.84825 -8.79847 Q -23.63 -8.78 -24.3751 -8.75374 Q -25.11 -8.73 -25.7806 -8.69482 Q -45.38 -7.72 -17.12102 -4.18808 Q 17.17 0.1 -4.24129 -1.34641 Q -4.91 -1.39 -5.62573 -1.4287 Q -6.36 -1.47 -7.13119 -1.50037 Q -7.92 -1.53 -8.74839 -1.56378 Q -9.59 -1.59 -10.46715 -1.61928 Q -11.36 -1.65 -12.2755 -1.66813 Q -13.21 -1.69 -14.15738 -1.7115 Q -15.12 -1.73 -16.09215 -1.75078 Q -17.07 -1.77 -18.05997 -1.78746 Q -19.05 -1.81 -20.04016 -1.82317 Q -21.03 -1.84 -22.01175 -1.85952 Q -22.99 -1.88 -23.95401 -1.89814 Q -24.91 -1.92 -25.84699 -1.94056 Q -26.77 -1.96 -27.67204 -1.98823 Q -28.55 -2.01 -29.41227 -2.04241 Q -30.25 -2.07 -31.05206 -2.10414 Q -31.84 -2.14 -32.57953 -2.17427 Q -33.31 -2.21 -33.98885 -2.25348 Q -34.66 -2.3 -35.27524 -2.34211 Q -35.89 -2.39 -36.43751 -2.44019 Q -36.99 -2.49 -37.47827 -2.54745 Q -37.97 -2.6 -38.40391 -2.66337 Q -38.84 -2.72 -39.22441 -2.78718 Q -39.61 -2.85 -39.95302 -2.91788 Q -40.3 -2.99 -40.60572 -3.0543 Q -40.92 -3.12 -41.20084 -3.19515 Q -41.49 -3.27 -41.75837 -3.33897 Q -42.03 -3.41 -42.29862 -3.48401 Q -42.57 -3.56 -42.84306 -3.62868 Q -43.12 -3.7 -43.41302 -3.77141 Q -43.7 -3.84 -44.0291 -3.91067 Q -44.35 -3.98 -44.71055 -4.04503 Q -45.07 -4.11 -45.47469 -4.1732 Q -45.87 -4.23 -46.33633 -4.29404 Q -46.79 -4.35 -47.30731 -4.40662 Q -47.82 -4.46 -48.39595 -4.51024 Q -48.97 -4.56 -49.60712 -4.60448 Q -50.25 -4.65 -50.9434 -4.68932 Q -51.65 -4.73 -52.40206 -4.76489 Q -53.17 -4.8 -53.97675 -4.83161 Q -54.8 -4.86 -55.65772 -4.8902 Q -56.53 -4.92 -57.43234 -4.94159 Q -58.35 -4.97 -59.2854 -4.98696 Q -60.24 -5.01 -61.1996 -5.02766 Q -62.18 -5.05 -63.15597 -5.06517 Q -64.14 -5.08 -65.13434 -5.10107 Q -64.14 -5.08 -63.15597 -5.06517 Q -62.18 -5.05 -61.1996 -5.02766 Q -60.24 -5.01 -59.2854 -4.98696 Q -58.35 -4.97 -57.43234 -4.94159 Q -56.53 -4.92 -55.65772 -4.8902 Q -54.8 -4.86 -53.97675 -4.83161 Q -53.17 -4.8 -52.40206 -4.76489 Q -51.65 -4.73 -50.9434 -4.68932 Q -50.25 -4.65 -49.60712 -4.60448 Q -48.97 -4.56 -48.39595 -4.51024 Q -47.82 -4.46 -47.30731 -4.40662 Q -46.79 -4.35 -46.33633 -4.29404 Q -45.87 -4.23 -45.47469 -4.1732 Q -45.07 -4.11 -44.71055 -4.04503 Q -44.35 -3.98 -44.0291 -3.91067 Q -43.7 -3.84 -43.41302 -3.77141 Q -43.12 -3.7 -42.84306 -3.62868 Q -42.57 -3.56 -42.29862 -3.48401 Q -42.03 -3.41 -41.75837 -3.33897 Q -41.49 -3.27 -41.20084 -3.19515 Q -40.92 -3.12 -40.60572 -3.0543 Q -40.3 -2.99 -39.95302 -2.91788 Q -39.61 -2.85 -39.22441 -2.78718 Q -38.84 -2.72 -38.40391 -2.66337 Q -37.97 -2.6 -37.47827 -2.54745 Q -36.99 -2.49 -36.43751 -2.44019 Q -35.89 -2.39 -35.27524 -2.34211 Q -34.66 -2.3 -33.98885 -2.25348 Q -33.31 -2.21 -32.57953 -2.17427 Q -31.84 -2.14 -31.05206 -2.10414 Q -30.25 -2.07 -29.41227 -2.04241 Q -28.55 -2.01 -27.67204 -1.98823 Q -26.77 -1.96 -25.84699 -1.94056 Q -24.91 -1.92 -23.95401 -1.89814 Q -22.99 -1.88 -22.01175 -1.85952 Q -21.03 -1.84 -20.04017 -1.82316 Q -19.05 -1.81 -18.05996 -1.78747 Q -17.07 -1.77 -16.09219 -1.75076 Q -15.12 -1.73 -14.15731 -1.71153 Q -13.21 -1.69 -12.27562 -1.66808 Q -11.36 -1.65 -10.46693 -1.61937 Q -9.59 -1.59 -8.74883 -1.56359 Q -7.92 -1.53 -7.13 -1.50086 Q -6.35 -1.47 -5.62982 -1.42698 Q 4.63 -0.84 11.23264 -2.15709 Q 19.1 -3.73 30.16223 -4.49791 Q 30.6 -4.53 31.08262 -4.55385 Q 31.59 -4.58 32.11979 -4.604 Q 32.68 -4.63 33.2663 -4.65027 Q 33.89 -4.67 34.52 -4.69417 Q 35.19 -4.72 35.87312 -4.73759 Q 36.59 -4.76 37.31084 -4.78224 Q 38.06 -4.81 38.80834 -4.82967 Q 39.58 -4.85 40.34068 -4.88138 Q 41.12 -4.91 41.87933 -4.93868 Q 42.65 -4.97 43.39339 -5.00261 Q 44.14 -5.04 44.85049 -5.07391 Q 45.56 -5.11 46.21794 -5.15298 Q 46.87 -5.19 47.46387 -5.23989 Q 48.05 -5.28 48.55848 -5.33434 Q 49.06 -5.38 49.47463 -5.43565 Q 49.88 -5.49 50.19007 -5.54284 Q 50.49 -5.6 50.68906 -5.65486 Q 50.88 -5.71 50.96083 -5.77035 Q 51.04 -5.83 51.00109 -5.88782 Q 50.96 -5.95 50.81234 -6.0057 Q 50.66 -6.07 50.40375 -6.12251 Q 50.14 -6.18 49.7907 -6.23683 Q 49.43 -6.29 48.9941 -6.34747 Q 48.55 -6.4 48.0395 -6.45345 Q 47.52 -6.51 46.95611 -6.55407 Q 46.39 -6.6 45.77688 -6.64887 Q 45.17 -6.69 44.53634 -6.73771 Q 43.91 -6.78 43.26844 -6.82083 Q 42.64 -6.86 42.00605 -6.89881 Q 41.39 -6.94 40.77982 -6.97249 Q 40.2 -7.01 39.61722 -7.04296 Q 39.07 -7.08 38.54163 -7.11152 Q 38.04 -7.14 37.57169 -7.17955 Q 37.13 -7.21 36.72067 -7.24851 Q 36.33 -7.28 35.99628 -7.31978 Q 35.67 -7.36 35.39943 -7.39468 Q 35.13 -7.43 34.923 -7.4746 Q 34.71 -7.52 34.55609 -7.5604 Q 34.39 -7.61 34.2824 -7.65268 Q 34.16 -7.7 34.08103 -7.75172 Q 33.99 -7.8 33.92771 -7.85747 Q 33.86 -7.91 33.79587 -7.96953 Q 33.73 -8.03 33.65792 -8.08713 Q 33.58 -8.15 33.48631 -8.20914 Q 33.39 -8.27 33.25462 -8.33412 Q 33.12 -8.4 32.93826 -8.46038 Q 32.76 -8.52 32.51666 -8.58568 Q 32.28 -8.65 31.97287 -8.70791 Q 31.67 -8.77 31.29441 -8.82486 Q 30.92 -8.88 30.47378 -8.93437 Q 30.03 -8.99 29.50868 -9.03432 Q 29 -9.08 28.40211 -9.12281 Q 27.82 -9.16 27.16215 -9.19815 Q 26.51 -9.23 25.8016 -9.25901 Q 25.09 -9.29 24.33724 -9.30444 Q 23.58 -9.32 22.7874 -9.33401 Q 21.99 -9.34 21.17395 -9.34769 Q 20.35 -9.35 19.51999 -9.34592 Q 18.68 -9.34 17.84826 -9.32965 Q 17 -9.32 16.18026 -9.30021 Q 15.35 -9.28 14.53534 -9.25933 Q 13.72 -9.24 12.92995 -9.20904 Q 12.14 -9.18 11.37702 -9.15159 Q 10.62 -9.12 9.88557 -9.0894 Q 9.17 -9.06 8.46041 -9.02494 Q 7.78 -8.99 7.10592 -8.96086 Q 6.46 -8.93 5.81674 -8.89947 Q 5.21 -8.87 4.5837 -8.84283 Q 4 -8.82 3.39515 -8.79278 Q 2.83 -8.77 2.23678 -8.75083 Q 1.68 -8.73 1.09265 -8.7181 Q 0.53 -8.7 -0.05376 -8.69526 Q -0.63 -8.69 -1.21875 -8.6825 Q -1.82 -8.68 -2.41771 -8.67952 Q -3.04 -8.68 -3.66465 -8.68553 Q -4.32 -8.69 -4.9762 -8.69932 Q -5.67 -8.71 -6.35982 -8.71933 Q -7.09 -8.73 -7.81753 -8.74362 Q -8.58 -8.76 -9.34925 -8.77006 Q -10.15 -8.78 -10.95048 -8.79641 Q -11.78 -8.81 -12.61221 -8.82035 Q -13.46 -8.83 -14.32104 -8.83961 Q -15.19 -8.85 -16.05948 -8.85203 Q -16.93 -8.86 -17.80662 -8.85565 Q -18.67 -8.86 -19.53851 -8.84876 Q -20.39 -8.84 -21.2282 -8.83006 Q -22.05 -8.82 -22.84825 -8.79847 Q -23.63 -8.78 -24.3751 -8.75374 Q -25.11 -8.73 -25.7806 -8.69482 Q -45.38 -7.72 -17.12102 -4.18808 Q 17.17 0.1 -4.24129 -1.34641 Q -4.91 -1.39 -5.62573 -1.4287 Q -6.36 -1.47 -7.13119 -1.50037 Q -7.92 -1.53 -8.74839 -1.56378 Q -9.59 -1.59 -10.46715 -1.61928 Q -11.36 -1.65 -12.2755 -1.66813 Q -13.21 -1.69 -14.15738 -1.7115 Q -15.12 -1.73 -16.09215 -1.75078 Q -17.07 -1.77 -18.05997 -1.78746 Q -19.05 -1.81 -20.04016 -1.82317 Q -21.03 -1.84 -22.01175 -1.85952 Q -22.99 -1.88 -23.95401 -1.89814 Q -24.91 -1.92 -25.84699 -1.94056 Q -26.77 -1.96 -27.67204 -1.98823 Q -28.55 -2.01 -29.41227 -2.04241 Q -30.25 -2.07 -31.05206 -2.10414 Q -31.84 -2.14 -32.57953 -2.17427 Q -33.31 -2.21 -33.98885 -2.25348 Q -34.66 -2.3 -35.27524 -2.34211 Q -35.89 -2.39 -36.43751 -2.44019 Q -36.99 -2.49 -37.47827 -2.54745 Q -37.97 -2.6 -38.40391 -2.66337 Q -38.84 -2.72 -39.22441 -2.78718 Q -39.61 -2.85 -39.95302 -2.91788 Q -40.3 -2.99 -40.60572 -3.0543 Q -40.92 -3.12 -41.20084 -3.19515 Q -41.49 -3.27 -41.75837 -3.33897 Q -42.03 -3.41 -42.29862 -3.48401 Q -42.57 -3.56 -42.84306 -3.62868 Q -43.12 -3.7 -43.41302 -3.77141 Q -43.7 -3.84 -44.0291 -3.91067 Q -44.35 -3.98 -44.71055 -4.04503 Q -45.07 -4.11 -45.47469 -4.1732 Q -45.87 -4.23 -46.33633 -4.29404 Q -46.79 -4.35 -47.30731 -4.40662 Q -47.82 -4.46 -48.39595 -4.51024 Q -48.97 -4.56 -49.60712 -4.60448 Q -50.25 -4.65 -50.9434 -4.68932 Q -51.65 -4.73 -52.40206 -4.76489 Q -53.17 -4.8 -53.97675 -4.83161 Q -54.8 -4.86 -55.65772 -4.8902 Q -56.53 -4.92 -57.43234 -4.94159 Q -58.35 -4.97 -59.2854 -4.98696 Q -60.24 -5.01 -61.1996 -5.02766 Q -62.18 -5.05 -63.15597 -5.06517 Q -64.14 -5.08 -65.13434 -5.10107" />
    <path d="M -65.13434 5.86894 Q -64.14 5.89 -63.15597 5.90484 Q -62.18 5.92 -61.1996 5.94235 Q -60.24 5.96 -59.2854 5.98305 Q -58.35 6 -57.43234 6.02842 Q -56.53 6.05 -55.65772 6.07981 Q -54.8 6.11 -53.97675 6.1384 Q -53.17 6.17 -52.40206 6.20512 Q -51.65 6.24 -50.9434 6.28069 Q -50.25 6.32 -49.60712 6.36553 Q -48.97 6.41 -48.39595 6.45977 Q -47.82 6.51 -47.30731 6.56339 Q -46.79 6.62 -46.33633 6.67597 Q -45.87 6.74 -45.47469 6.79681 Q -45.07 6.86 -44.71055 6.92498 Q -44.35 6.99 -44.0291 7.05934 Q -43.7 7.13 -43.41302 7.1986 Q -43.12 7.27 -42.84306 7.34133 Q -42.57 7.41 -42.29862 7.486 Q -42.03 7.56 -41.75837 7.63104 Q -41.49 7.7 -41.20084 7.77486 Q -40.92 7.85 -40.60572 7.91571 Q -40.3 7.98 -39.95302 8.05213 Q -39.61 8.12 -39.22441 8.18283 Q -38.84 8.25 -38.40391 8.30664 Q -37.97 8.37 -37.47827 8.42256 Q -36.99 8.48 -36.43751 8.52982 Q -35.89 8.58 -35.27524 8.6279 Q -34.66 8.67 -33.98885 8.71653 Q -33.31 8.76 -32.57953 8.79574 Q -31.84 8.83 -31.05206 8.86587 Q -30.25 8.9 -29.41227 8.92761 Q -28.55 8.96 -27.67204 8.98179 Q -26.77 9.01 -25.84699 9.02945 Q -24.91 9.05 -23.95401 9.07187 Q -22.99 9.09 -22.01175 9.11049 Q -21.03 9.13 -20.04017 9.14685 Q -19.05 9.16 -18.05996 9.18254 Q -17.07 9.2 -16.09219 9.21925 Q -15.12 9.24 -14.15731 9.25848 Q -13.21 9.28 -12.27562 9.30193 Q -11.36 9.32 -10.46693 9.35064 Q -9.59 9.38 -8.74883 9.40642 Q -7.92 9.44 -7.13 9.46915 Q -6.35 9.5 -5.62982 9.54303 Q 4.63 10.13 11.23264 8.81292 Q 19.1 7.24 30.16223 6.4721 Q 30.6 6.44 31.08262 6.41616 Q 31.59 6.39 32.11979 6.36601 Q 32.68 6.34 33.2663 6.31974 Q 33.89 6.3 34.52 6.27584 Q 35.19 6.25 35.87312 6.23242 Q 36.59 6.21 37.31084 6.18777 Q 38.06 6.16 38.80834 6.14035 Q 39.58 6.12 40.34068 6.08863 Q 41.12 6.06 41.87933 6.03133 Q 42.65 6 43.39339 5.9674 Q 44.14 5.93 44.85049 5.8961 Q 45.56 5.86 46.21794 5.81703 Q 46.87 5.78 47.46387 5.73012 Q 48.05 5.69 48.55848 5.63567 Q 49.06 5.59 49.47463 5.53436 Q 49.88 5.48 50.19007 5.42717 Q 50.49 5.37 50.68906 5.31515 Q 50.88 5.26 50.96083 5.19966 Q 51.04 5.14 51.00109 5.08219 Q 50.96 5.02 50.81234 4.96431 Q 50.66 4.9 50.40375 4.8475 Q 50.14 4.79 49.7907 4.73318 Q 49.43 4.68 48.9941 4.62254 Q 48.55 4.57 48.0395 4.51656 Q 47.52 4.46 46.95611 4.41594 Q 46.39 4.37 45.77688 4.32114 Q 45.17 4.28 44.53634 4.2323 Q 43.91 4.19 43.26844 4.14918 Q 42.64 4.11 42.00605 4.0712 Q 41.39 4.03 40.77982 3.99752 Q 40.2 3.96 39.61722 3.92705 Q 39.07 3.89 38.54163 3.8585 Q 38.04 3.83 37.57169 3.79046 Q 37.13 3.76 36.72067 3.7215 Q 36.33 3.69 35.99628 3.65023 Q 35.67 3.61 35.39943 3.57533 Q 35.13 3.54 34.923 3.49541 Q 34.71 3.45 34.55609 3.40961 Q 34.39 3.36 34.2824 3.31734 Q 34.16 3.27 34.08103 3.2183 Q 33.99 3.17 33.92771 3.11254 Q 33.86 3.06 33.79587 3.00049 Q 33.73 2.94 33.65792 2.88289 Q 33.58 2.82 33.48631 2.76087 Q 33.39 2.7 33.25462 2.63589 Q 33.12 2.57 32.93826 2.50963 Q 32.76 2.45 32.51666 2.38433 Q 32.28 2.32 31.97287 2.2621 Q 31.67 2.2 31.29441 2.14515 Q 30.92 2.09 30.47378 2.03565 Q 30.03 1.98 29.50868 1.93569 Q 29 1.89 28.40211 1.8472 Q 27.82 1.81 27.16215 1.77186 Q 26.51 1.74 25.8016 1.711 Q 25.09 1.68 24.33724 1.66557 Q 23.58 1.65 22.7874 1.636 Q 21.99 1.63 21.17395 1.62233 Q 20.35 1.62 19.51999 1.62409 Q 18.68 1.63 17.84826 1.64036 Q 17 1.65 16.18026 1.6698 Q 15.35 1.69 14.53534 1.71068 Q 13.72 1.73 12.92995 1.76097 Q 12.14 1.79 11.37702 1.81842 Q 10.62 1.85 9.88557 1.88061 Q 9.17 1.91 8.46041 1.94507 Q 7.78 1.98 7.10592 2.00915 Q 6.46 2.04 5.81674 2.07054 Q 5.21 2.1 4.5837 2.12718 Q 4 2.15 3.39515 2.17723 Q 2.83 2.2 2.23678 2.21918 Q 1.68 2.24 1.09265 2.25191 Q 0.53 2.27 -0.05376 2.27476 Q -0.63 2.28 -1.21875 2.28751 Q -1.82 2.29 -2.41771 2.29049 Q -3.04 2.29 -3.66465 2.28448 Q -4.32 2.28 -4.9762 2.27069 Q -5.67 2.26 -6.35982 2.25068 Q -7.09 2.24 -7.81753 2.2264 Q -8.58 2.21 -9.34925 2.19995 Q -10.15 2.19 -10.95048 2.1736 Q -11.78 2.16 -12.61221 2.14966 Q -13.46 2.14 -14.32104 2.1304 Q -15.19 2.12 -16.05948 2.11798 Q -16.93 2.11 -17.80662 2.11436 Q -18.67 2.11 -19.53851 2.12125 Q -20.39 2.13 -21.2282 2.13995 Q -22.05 2.15 -22.84825 2.17154 Q -23.63 2.19 -24.3751 2.21627 Q -25.11 2.24 -25.7806 2.27519 Q -45.38 3.25 -17.12102 6.78193 Q 17.17 11.07 -4.24129 9.6236 Q -4.91 9.58 -5.62573 9.54131 Q -6.36 9.5 -7.13119 9.46965 Q -7.92 9.44 -8.74839 9.40623 Q -9.59 9.38 -10.46715 9.35073 Q -11.36 9.32 -12.2755 9.30188 Q -13.21 9.28 -14.15738 9.25851 Q -15.12 9.24 -16.09215 9.21924 Q -17.07 9.2 -18.05997 9.18255 Q -19.05 9.16 -20.04016 9.14684 Q -21.03 9.13 -22.01175 9.11049 Q -22.99 9.09 -23.95401 9.07187 Q -24.91 9.05 -25.84699 9.02945 Q -26.77 9.01 -27.67204 8.98179 Q -28.55 8.96 -29.41227 8.92761 Q -30.25 8.9 -31.05206 8.86587 Q -31.84 8.83 -32.57953 8.79574 Q -33.31 8.76 -33.98885 8.71653 Q -34.66 8.67 -35.27524 8.6279 Q -35.89 8.58 -36.43751 8.52982 Q -36.99 8.48 -37.47827 8.42256 Q -37.97 8.37 -38.40391 8.30664 Q -38.84 8.25 -39.22441 8.18283 Q -39.61 8.12 -39.95302 8.05213 Q -40.3 7.98 -40.60572 7.91571 Q -40.92 7.85 -41.20084 7.77486 Q -41.49 7.7 -41.75837 7.63104 Q -42.03 7.56 -42.29862 7.486 Q -42.57 7.41 -42.84306 7.34133 Q -43.12 7.27 -43.41302 7.1986 Q -43.7 7.13 -44.0291 7.05934 Q -44.35 6.99 -44.71055 6.92498 Q -45.07 6.86 -45.47469 6.79681 Q -45.87 6.74 -46.33633 6.67597 Q -46.79 6.62 -47.30731 6.56339 Q -47.82 6.51 -48.39595 6.45977 Q -48.97 6.41 -49.60712 6.36553 Q -50.25 6.32 -50.9434 6.28069 Q -51.65 6.24 -52.40206 6.20512 Q -53.17 6.17 -53.97675 6.1384 Q -54.8 6.11 -55.65772 6.07981 Q -56.53 6.05 -57.43234 6.02842 Q -58.35 6 -59.2854 5.98305 Q -60.24 5.96 -61.1996 5.94235 Q -62.18 5.92 -63.15597 5.90484 Q -64.14 5.89 -65.13434 5.86894" />
    <path d="M 3.99118 9.64321 Q -64.14 5.89 -63.15597 5.90484 Q -62.18 5.92 -61.1996 5.94235 Q -60.24 5.96 -59.2854 5.98305 Q -58.35 6 -57.43234 6.02842 Q -56.53 6.05 -55.65772 6.07981 Q -54.8 6.11 -53.97675 6.1384 Q -53.17 6.17 -52.40206 6.20512 Q -51.65 6.24 -50.9434 6.28069 Q -50.25 6.32 -49.60712 6.36553 Q -48.97 6.41 -48.39595 6.45977 Q -47.82 6.51 -47.30731 6.56339 Q -46.79 6.62 -46.33633 6.67597 Q -45.87 6.74 -45.47469 6.79681 Q -45.07 6.86 -44.71055 6.92498 Q -44.35 6.99 -44.0291 7.05934 Q -43.7 7.13 -43.41302 7.1986 Q -43.12 7.27 -42.84306 7.34133 Q -42.57 7.41 -42.29862 7.486 Q -42.03 7.56 -41.75837 7.63104 Q -41.49 7.7 -41.20084 7.77486 Q -40.92 7.85 -40.60572 7.91571 Q -40.3 7.98 -39.95302 8.05213 Q -39.61 8.12 -39.22441 8.18283 Q -38.84 8.25 -38.40391 8.30664 Q -37.97 8.37 -37.47827 8.42256 Q -36.99 8.48 -36.43751 8.52982 Q -35.89 8.58 -35.27524 8.6279 Q -34.66 8.67 -33.98885 8.71653 Q -33.31 8.76 -32.57953 8.79574 Q -31.84 8.83 -31.05206 8.86587 Q -30.25 8.9 -29.41227 8.92761 Q -28.55 8.96 -27.67204 8.98179 Q -26.77 9.01 -25.84699 9.02945 Q -24.91 9.05 -23.95401 9.07187 Q -22.99 9.09 -22.01175 9.11049 Q -21.03 9.13 -20.04017 9.14685 Q -19.05 9.16 -18.05996 9.18254 Q -17.07 9.2 -16.09219 9.21925 Q -15.12 9.24 -14.15731 9.25848 Q -13.21 9.28 -12.27562 9.30193 Q -11.36 9.32 -10.46693 9.35064 Q -9.59 9.38 -8.74883 9.40642 Q -7.92 9.44 -7.13 9.46915 Q -6.35 9.5 -5.62982 9.54303 Q 4.63 10.13 11.23264 8.81292 Q 19.1 7.24 30.16223 6.4721 Q 30.6 6.44 31.08262 6.41616 Q 31.59 6.39 32.11979 6.36601 Q 32.68 6.34 33.2663 6.31974 Q 33.89 6.3 34.52 6.27584 Q 35.19 6.25 35.87312 6.23242 Q 36.59 6.21 37.31084 6.18777 Q 38.06 6.16 38.80834 6.14035 Q 39.58 6.12 40.34068 6.08863 Q 41.12 6.06 41.87933 6.03133 Q 42.65 6 43.39339 5.9674 Q 44.14 5.93 44.85049 5.8961 Q 45.56 5.86 46.21794 5.81703 Q 46.87 5.78 47.46387 5.73012 Q 48.05 5.69 48.55848 5.63567 Q 49.06 5.59 49.47463 5.53436 Q 49.88 5.48 50.19007 5.42717 Q 50.49 5.37 50.68906 5.31515 Q 50.88 5.26 50.96083 5.19966 Q 51.04 5.14 51.00109 5.08219 Q 50.96 5.02 50.81234 4.96431 Q 50.66 4.9 50.40375 4.8475 Q 50.14 4.79 49.7907 4.73318 Q 49.43 4.68 48.9941 4.62254 Q 48.55 4.57 48.0395 4.51656 Q 47.52 4.46 46.95611 4.41594 Q 46.39 4.37 45.77688 4.32114 Q 45.17 4.28 44.53634 4.2323 Q 43.91 4.19 43.26844 4.14918 Q 42.64 4.11 42.00605 4.0712 Q 41.39 4.03 40.77982 3.99752 Q 40.2 3.96 39.61722 3.92705 Q 39.07 3.89 38.54163 3.8585 Q 38.04 3.83 37.57169 3.79046 Q 37.13 3.76 36.72067 3.7215 Q 36.33 3.69 35.99628 3.65023 Q 35.67 3.61 35.39943 3.57533 Q 35.13 3.54 34.923 3.49541 Q 34.71 3.45 34.55609 3.40961 Q 34.39 3.36 34.2824 3.31734 Q 34.16 3.27 34.08103 3.2183 Q 33.99 3.17 33.92771 3.11254 Q 33.86 3.06 33.79587 3.00049 Q 33.73 2.94 33.65792 2.88289 Q 33.58 2.82 33.48631 2.76087 Q 33.39 2.7 33.25462 2.63589 Q 33.12 2.57 32.93826 2.50963 Q 32.76 2.45 32.51666 2.38433 Q 32.28 2.32 31.97287 2.2621 Q 31.67 2.2 31.29441 2.14515 Q 30.92 2.09 30.47378 2.03565 Q 30.03 1.98 29.50868 1.93569 Q 29 1.89 28.40211 1.8472 Q 27.82 1.81 27.16215 1.77186 Q 26.51 1.74 25.8016 1.711 Q 25.09 1.68 24.33724 1.66557 Q 23.58 1.65 22.7874 1.636 Q 21.99 1.63 21.17395 1.62233 Q 20.35 1.62 19.51999 1.62409 Q 18.68 1.63 17.84826 1.64036 Q 17 1.65 16.18026 1.6698 Q 15.35 1.69 14.53534 1.71068 Q 13.72 1.73 12.92995 1.76097 Q 12.14 1.79 11.37702 1.81842 Q 10.62 1.85 9.88557 1.88061 Q 9.17 1.91 8.46041 1.94507 Q 7.78 1.98 7.10592 2.00915 Q 6.46 2.04 5.81674 2.07054 Q 5.21 2.1 4.5837 2.12718 Q 4 2.15 3.39515 2.17723 Q 2.83 2.2 2.23678 2.21918 Q 1.68 2.24 1.09265 2.25191 Q 0.53 2.27 -0.05376 2.27476 Q -0.63 2.28 -1.21875 2.28751 Q -1.82 2.29 -2.41771 2.29049 Q -3.04 2.29 -3.66465 2.28448 Q -4.32 2.28 -4.9762 2.27069 Q -5.67 2.26 -6.35982 2.25068 Q -7.09 2.24 -7.81753 2.2264 Q -8.58 2.21 -9.34925 2.19995 Q -10.15 2.19 -10.95048 2.1736 Q -11.78 2.16 -12.61221 2.14966 Q -13.46 2.14 -14.32104 2.1304 Q -15.19 2.12 -16.05948 2.11798 Q -16.93 2.11 -17.80662 2.11436 Q -18.67 2.11 -19.53851 2.12125 Q -20.39 2.13 -21.2282 2.13995 Q -22.05 2.15 -22.84825 2.17154 Q -23.63 2.19 -24.3751 2.21627 Q -25.11 2.24 -25.7806 2.27519 Q -45.38 3.25 -17.12102 6.78193 Q 17.17 11.07 -4.24129 9.6236 Q -4.91 9.58 -5.62573 9.54131 Q -6.36 9.5 -7.13119 9.46965 Q -7.92 9.44 -8.74839 9.40623 Q -9.59 9.38 -10.46715 9.35073 Q -11.36 9.32 -12.2755 9.30188 Q -13.21 9.28 -14.15738 9.25851 Q -15.12 9.24 -16.09215 9.21924 Q -17.07 9.2 -18.05997 9.18255 Q -19.05 9.16 -20.04016 9.14684 Q -21.03 9.13 -22.01175 9.11049 Q -22.99 9.09 -23.95401 9.07187 Q -24.91 9.05 -25.84699 9.02945 Q -26.77 9.01 -27.67204 8.98179 Q -28.55 8.96 -29.41227 8.92761 Q -30.25 8.9 -31.05206 8.86587 Q -31.84 8.83 -32.57953 8.79574 Q -33.31 8.76 -33.98885 8.71653 Q -34.66 8.67 -35.27524 8.6279 Q -35.89 8.58 -36.43751 8.52982 Q -36.99 8.48 -37.47827 8.42256 Q -37.97 8.37 -38.40391 8.30664 Q -38.84 8.25 -39.22441 8.18283 Q -39.61 8.12 -39.95302 8.05213 Q -40.3 7.98 -40.60572 7.91571 Q -40.92 7.85 -41.20084 7.77486 Q -41.49 7.7 -41.75837 7.63104 Q -42.03 7.56 -42.29862 7.486 Q -42.57 7.41 -42.84306 7.34133 Q -43.12 7.27 -43.41302 7.1986 Q -43.7 7.13 -44.0291 7.05934 Q -44.35 6.99 -44.71055 6.92498 Q -45.07 6.86 -45.47469 6.79681 Q -45.87 6.74 -46.33633 6.67597 Q -46.79 6.62 -47.30731 6.56339 Q -47.82 6.51 -48.39595 6.45977 Q -48.97 6.41 -49.60712 6.36553 Q -50.25 6.32 -50.9434 6.28069 Q -51.65 6.24 -52.40206 6.20512 Q -53.17 6.17 -53.97675 6.1384 Q -54.8 6.11 -55.65772 6.07981 Q -56.53 6.05 -57.43234 6.02842 Q -58.35 6 -59.2854 5.98305 Q -60.24 5.96 -61.1996 5.94235 Q -62.18 5.92 -63.15597 5.90484 Q -64.14 5.89 -65.13434 5.86894 L 51.01353 -5.84936" />
    <path d="M 3.99118 9.88591 Q -64.14 5.89 -63.15597 5.90484 Q -62.18 5.92 -61.1996 5.94235 Q -60.24 5.96 -59.2854 5.98305 Q -58.35 6 -57.43234 6.02842 Q -56.53 6.05 -55.65772 6.07981 Q -54.8 6.11 -53.97675 6.1384 Q -53.17 6.17 -52.40206 6.20512 Q -51.65 6.24 -50.9434 6.28069 Q -50.25 6.32 -49.60712 6.36553 Q -48.97 6.41 -48.39595 6.45977 Q -47.82 6.51 -47.30731 6.56339 Q -46.79 6.62 -46.33633 6.67597 Q -45.87 6.74 -45.47469 6.79681 Q -45.07 6.86 -44.71055 6.92498 Q -44.35 6.99 -44.0291 7.05934 Q -43.7 7.13 -43.41302 7.1986 Q -43.12 7.27 -42.84306 7.34133 Q -42.57 7.41 -42.29862 7.486 Q -42.03 7.56 -41.75837 7.63104 Q -41.49 7.7 -41.20084 7.77486 Q -40.92 7.85 -40.60572 7.91571 Q -40.3 7.98 -39.95302 8.05213 Q -39.61 8.12 -39.22441 8.18283 Q -38.84 8.25 -38.40391 8.30664 Q -37.97 8.37 -37.47827 8.42256 Q -36.99 8.48 -36.43751 8.52982 Q -35.89 8.58 -35.27524 8.6279 Q -34.66 8.67 -33.98885 8.71653 Q -33.31 8.76 -32.57953 8.79574 Q -31.84 8.83 -31.05206 8.86587 Q -30.25 8.9 -29.41227 8.92761 Q -28.55 8.96 -27.67204 8.98179 Q -26.77 9.01 -25.84699 9.02945 Q -24.91 9.05 -23.95401 9.07187 Q -22.99 9.09 -22.01175 9.11049 Q -21.03 9.13 -20.04017 9.14685 Q -19.05 9.16 -18.05996 9.18254 Q -17.07 9.2 -16.09219 9.21925 Q -15.12 9.24 -14.15731 9.25848 Q -13.21 9.28 -12.27562 9.30193 Q -11.36 9.32 -10.46693 9.35064 Q -9.59 9.38 -8.74883 9.40642 Q -7.92 9.44 -7.13 9.46915 Q -6.35 9.5 -5.62982 9.54303 Q 4.63 10.13 11.23264 8.81292 Q 19.1 7.24 30.16223 6.4721 Q 30.6 6.44 31.08262 6.41616 Q 31.59 6.39 32.11979 6.36601 Q 32.68 6.34 33.2663 6.31974 Q 33.89 6.3 34.52 6.27584 Q 35.19 6.25 35.87312 6.23242 Q 36.59 6.21 37.31084 6.18777 Q 38.06 6.16 38.80834 6.14035 Q 39.58 6.12 40.34068 6.08863 Q 41.12 6.06 41.87933 6.03133 Q 42.65 6 43.39339 5.9674 Q 44.14 5.93 44.85049 5.8961 Q 45.56 5.86 46.21794 5.81703 Q 46.87 5.78 47.46387 5.73012 Q 48.05 5.69 48.55848 5.63567 Q 49.06 5.59 49.47463 5.53436 Q 49.88 5.48 50.19007 5.42717 Q 50.49 5.37 50.68906 5.31515 Q 50.88 5.26 50.96083 5.19966 Q 51.04 5.14 51.00109 5.08219 Q 50.96 5.02 50.81234 4.96431 Q 50.66 4.9 50.40375 4.8475 Q 50.14 4.79 49.7907 4.73318 Q 49.43 4.68 48.9941 4.62254 Q 48.55 4.57 48.0395 4.51656 Q 47.52 4.46 46.95611 4.41594 Q 46.39 4.37 45.77688 4.32114 Q 45.17 4.28 44.53634 4.2323 Q 43.91 4.19 43.26844 4.14918 Q 42.64 4.11 42.00605 4.0712 Q 41.39 4.03 40.77982 3.99752 Q 40.2 3.96 39.61722 3.92705 Q 39.07 3.89 38.54163 3.8585 Q 38.04 3.83 37.57169 3.79046 Q 37.13 3.76 36.72067 3.7215 Q 36.33 3.69 35.99628 3.65023 Q 35.67 3.61 35.39943 3.57533 Q 35.13 3.54 34.923 3.49541 Q 34.71 3.45 34.55609 3.40961 Q 34.39 3.36 34.2824 3.31734 Q 34.16 3.27 34.08103 3.2183 Q 33.99 3.17 33.92771 3.11254 Q 33.86 3.06 33.79587 3.00049 Q 33.73 2.94 33.65792 2.88289 Q 33.58 2.82 33.48631 2.76087 Q 33.39 2.7 33.25462 2.63589 Q 33.12 2.57 32.93826 2.50963 Q 32.76 2.45 32.51666 2.38433 Q 32.28 2.32 31.97287 2.2621 Q 31.67 2.2 31.29441 2.14515 Q 30.92 2.09 30.47378 2.03565 Q 30.03 1.98 29.50868 1.93569 Q 29 1.89 28.40211 1.8472 Q 27.82 1.81 27.16215 1.77186 Q 26.51 1.74 25.8016 1.711 Q 25.09 1.68 24.33724 1.66557 Q 23.58 1.65 22.7874 1.636 Q 21.99 1.63 21.17395 1.62233 Q 20.35 1.62 19.51999 1.62409 Q 18.68 1.63 17.84826 1.64036 Q 17 1.65 16.18026 1.6698 Q 15.35 1.69 14.53534 1.71068 Q 13.72 1.73 12.92995 1.76097 Q 12.14 1.79 11.37702 1.81842 Q 10.62 1.85 9.88557 1.88061 Q 9.17 1.91 8.46041 1.94507 Q 7.78 1.98 7.10592 2.00915 Q 6.46 2.04 5.81674 2.07054 Q 5.21 2.1 4.5837 2.12718 Q 4 2.15 3.39515 2.17723 Q 2.83 2.2 2.23678 2.21918 Q 1.68 2.24 1.09265 2.25191 Q 0.53 2.27 -0.05376 2.27476 Q -0.63 2.28 -1.21875 2.28751 Q -1.82 2.29 -2.41771 2.29049 Q -3.04 2.29 -3.66465 2.28448 Q -4.32 2.28 -4.9762 2.27069 Q -5.67 2.26 -6.35982 2.25068 Q -7.09 2.24 -7.81753 2.2264 Q -8.58 2.21 -9.34925 2.19995 Q -10.15 2.19 -10.95048 2.1736 Q -11.78 2.16 -12.61221 2.14966 Q -13.46 2.14 -14.32104 2.1304 Q -15.19 2.12 -16.05948 2.11798 Q -16.93 2.11 -17.80662 2.11436 Q -18.67 2.11 -19.53851 2.12125 Q -20.39 2.13 -21.2282 2.13995 Q -22.05 2.15 -22.84825 2.17154 Q -23.63 2.19 -24.3751 2.21627 Q -25.11 2.24 -25.7806 2.27519 Q -45.38 3.25 -17.12102 6.78193 Q 17.17 11.07 -4.24129 9.6236 Q -4.91 9.58 -5.62573 9.54131 Q -6.36 9.5 -7.13119 9.46965 Q -7.92 9.44 -8.74839 9.40623 Q -9.59 9.38 -10.46715 9.35073 Q -11.36 9.32 -12.2755 9.30188 Q -13.21 9.28 -14.15738 9.25851 Q -15.12 9.24 -16.09215 9.21924 Q -17.07 9.2 -18.05997 9.18255 Q -19.05 9.16 -20.04016 9.14684 Q -21.03 9.13 -22.01175 9.11049 Q -22.99 9.09 -23.95401 9.07187 Q -24.91 9.05 -25.84699 9.02945 Q -26.77 9.01 -27.67204 8.98179 Q -28.55 8.96 -29.41227 8.92761 Q -30.25 8.9 -31.05206 8.86587 Q -31.84 8.83 -32.57953 8.79574 Q -33.31 8.76 -33.98885 8.71653 Q -34.66 8.67 -35.27524 8.6279 Q -35.89 8.58 -36.43751 8.52982 Q -36.99 8.48 -37.47827 8.42256 Q -37.97 8.37 -38.40391 8.30664 Q -38.84 8.25 -39.22441 8.18283 Q -39.61 8.12 -39.95302 8.05213 Q -40.3 7.98 -40.60572 7.91571 Q -40.92 7.85 -41.20084 7.77486 Q -41.49 7.7 -41.75837 7.63104 Q -42.03 7.56 -42.29862 7.486 Q -42.57 7.41 -42.84306 7.34133 Q -43.12 7.27 -43.41302 7.1986 Q -43.7 7.13 -44.0291 7.05934 Q -44.35 6.99 -44.71055 6.92498 Q -45.07 6.86 -45.47469 6.79681 Q -45.87 6.74 -46.33633 6.67597 Q -46.79 6.62 -47.30731 6.56339 Q -47.82 6.51 -48.39595 6.45977 Q -48.97 6.41 -49.60712 6.36553 Q -50.25 6.32 -50.9434 6.28069 Q -51.65 6.24 -52.40206 6.20512 Q -53.17 6.17 -53.97675 6.1384 Q -54.8 6.11 -55.65772 6.07981 Q -56.53 6.05 -57.43234 6.02842 Q -58.35 6 -59.2854 5.98305 Q -60.24 5.96 -61.1996 5.94235 Q -62.18 5.92 -63.15597 5.90484 Q -64.14 5.89 -65.13434 5.86894" />
    <path d="M -33.80587 -2.24226 L -33.80587 -7.46611" />
    <path d="M 3.99118 9.88591 L 3.99118 -1.0841" />
</svg>